<svg width="20" height="20" viewBox="0 0 20 20" fill="none" xmlns="http://www.w3.org/2000/svg">
<path d="M1.80525 6.6625C1.9037 5.39963 2.89959 4.41164 4.16389 4.33335C5.51613 4.24962 7.4467 4.16675 9.79163 4.16675C12.1366 4.16675 14.0671 4.24962 15.4193 4.33335C16.6837 4.41164 17.6796 5.39963 17.778 6.6625C17.8513 7.6025 17.9166 8.69095 17.9166 9.58342C17.9166 10.4759 17.8513 11.5644 17.778 12.5044C17.6796 13.7672 16.6837 14.7552 15.4193 14.8335C14.0671 14.9172 12.1366 15.0001 9.79163 15.0001C7.4467 15.0001 5.51613 14.9172 4.16389 14.8335C2.89959 14.7552 1.9037 13.7672 1.80525 12.5044C1.73197 11.5644 1.66663 10.4759 1.66663 9.58342C1.66663 8.69095 1.73197 7.6025 1.80525 6.6625Z" stroke="#858585" stroke-width="1.5"/>
<path d="M9.4375 10.4234V8.74375L10.6973 9.58357L9.4375 10.4234Z" fill="#858585" stroke="#858585" stroke-width="2"/>
</svg>
