<svg width="20" height="20" viewBox="0 0 20 20" fill="none" xmlns="http://www.w3.org/2000/svg">
<path d="M1.80537 6.6625C1.90382 5.39963 2.89972 4.41164 4.16401 4.33335C5.51625 4.24962 7.44683 4.16675 9.79175 4.16675C12.1367 4.16675 14.0673 4.24962 15.4195 4.33335C16.6838 4.41164 17.6797 5.39963 17.7781 6.6625C17.8514 7.6025 17.9167 8.69095 17.9167 9.58342C17.9167 10.4759 17.8514 11.5644 17.7781 12.5044C17.6797 13.7672 16.6838 14.7552 15.4195 14.8335C14.0673 14.9172 12.1367 15.0001 9.79175 15.0001C7.44683 15.0001 5.51625 14.9172 4.16401 14.8335C2.89972 14.7552 1.90382 13.7672 1.80537 12.5044C1.7321 11.5644 1.66675 10.4759 1.66675 9.58342C1.66675 8.69095 1.7321 7.6025 1.80537 6.6625Z" stroke="#005F73" stroke-width="1.5"/>
<path d="M9.4375 10.4234V8.74375L10.6973 9.58357L9.4375 10.4234Z" fill="#005F73" stroke="#005F73" stroke-width="2"/>
</svg>
